HIERARCHY
ROOT Hips
{
	OFFSET 0.00000 0.00000 0.00000
	CHANNELS 6 Xposition Yposition Zposition Zrotation Yrotation Xrotation 
	JOINT LHipJoint
	{
		OFFSET 0 0 0
		CHANNELS 3 Zrotation Yrotation Xrotation
		JOINT LeftUpLeg
		{
			OFFSET 1.86795 -1.59681 0.65681
			CHANNELS 3 Zrotation Yrotation Xrotation
			JOINT LeftLeg
			{
				OFFSET 2.30491 -6.33268 0.00000
				CHANNELS 3 Zrotation Yrotation Xrotation
				JOINT LeftFoot
				{
					OFFSET 2.46780 -6.78022 0.00000
					CHANNELS 3 Zrotation Yrotation Xrotation
					JOINT LeftToeBase
					{
						OFFSET 0.07897 -0.21698 1.59652
						CHANNELS 3 Zrotation Yrotation Xrotation
						End Site
						{
							OFFSET 0.00000 -0.00000 0.82310
						}
					}
				}
			}
		}
	}
	JOINT RHipJoint
	{
		OFFSET 0 0 0
		CHANNELS 3 Zrotation Yrotation Xrotation
		JOINT RightUpLeg
		{
			OFFSET -1.93650 -1.59681 0.65681
			CHANNELS 3 Zrotation Yrotation Xrotation
			JOINT RightLeg
			{
				OFFSET -2.29410 -6.30299 0.00000
				CHANNELS 3 Zrotation Yrotation Xrotation
				JOINT RightFoot
				{
					OFFSET -2.48738 -6.83403 0.00000
					CHANNELS 3 Zrotation Yrotation Xrotation
					JOINT RightToeBase
					{
						OFFSET -0.08699 -0.23899 1.89395
						CHANNELS 3 Zrotation Yrotation Xrotation
						End Site
						{
							OFFSET -0.00000 -0.00000 0.96904
						}
					}
				}
			}
		}
	}
	JOINT LowerBack
	{
		OFFSET 0 0 0
		CHANNELS 3 Zrotation Yrotation Xrotation
		JOINT Spine
		{
			OFFSET 0.03629 1.99740 -0.07548
			CHANNELS 3 Zrotation Yrotation Xrotation
			JOINT Spine1
			{
				OFFSET 0.03970 1.94298 0.17218
				CHANNELS 3 Zrotation Yrotation Xrotation
				JOINT Neck
				{
					OFFSET 0 0 0
					CHANNELS 3 Zrotation Yrotation Xrotation
					JOINT Neck1
					{
						OFFSET -0.05054 1.79469 0.04241
						CHANNELS 3 Zrotation Yrotation Xrotation
						JOINT Head
						{
							OFFSET 0.05195 1.78475 -0.22133
							CHANNELS 3 Zrotation Yrotation Xrotation
							End Site
							{
								OFFSET 0.02420 1.80711 -0.07950
							}
						}
					}
				}
				JOINT LeftShoulder
				{
					OFFSET 0 0 0
					CHANNELS 3 Zrotation Yrotation Xrotation
					JOINT LeftArm
					{
						OFFSET 2.92134 1.19850 0.36056
						CHANNELS 3 Zrotation Yrotation Xrotation
						JOINT LeftForeArm
						{
							OFFSET 4.84137 -0.00000 0.00000
							CHANNELS 3 Zrotation Yrotation Xrotation
							JOINT LeftHand
							{
								OFFSET 3.24520 -0.00000 -0.00000
								CHANNELS 3 Zrotation Yrotation Xrotation
								JOINT LeftFingerBase
								{
									OFFSET 0 0 0
									CHANNELS 3 Zrotation Yrotation Xrotation
									JOINT LeftHandIndex1
									{
										OFFSET 0.52122 -0.00000 0.00000
										CHANNELS 3 Zrotation Yrotation Xrotation
										End Site
										{
											OFFSET 0.42022 -0.00000 0.00000
										}
									}
								}
								JOINT LThumb
								{
									OFFSET 0 0 0
									CHANNELS 3 Zrotation Yrotation Xrotation
									End Site
									{
										OFFSET 0.42664 -0.00000 0.42664
									}
								}
							}
						}
					}
				}
				JOINT RightShoulder
				{
					OFFSET 0 0 0
					CHANNELS 3 Zrotation Yrotation Xrotation
					JOINT RightArm
					{
						OFFSET -2.84327 1.20795 0.50191
						CHANNELS 3 Zrotation Yrotation Xrotation
						JOINT RightForeArm
						{
							OFFSET -4.72284 -0.00000 0.00000
							CHANNELS 3 Zrotation Yrotation Xrotation
							JOINT RightHand
							{
								OFFSET -3.23459 -0.00000 0.00000
								CHANNELS 3 Zrotation Yrotation Xrotation
								JOINT RightFingerBase
								{
									OFFSET 0 0 0
									CHANNELS 3 Zrotation Yrotation Xrotation
									JOINT RightHandIndex1
									{
										OFFSET -0.30742 -0.00000 0.00000
										CHANNELS 3 Zrotation Yrotation Xrotation
										End Site
										{
											OFFSET -0.24785 -0.00000 0.00000
										}
									}
								}
								JOINT RThumb
								{
									OFFSET 0 0 0
									CHANNELS 3 Zrotation Yrotation Xrotation
									End Site
									{
										OFFSET -0.25163 -0.00000 0.25163
									}
								}
							}
						}
					}
				}
			}
		}
	}
}
MOTION
Frames: 6
Frame Time: .0083333
11.131 16.3463 -14.7917 0 0 0 0 0 0 -21 0 0 0 0 0 0 0 0 0 0 0 0 0 0 21 0 0 0 0 0 0 0 0 0 0 0 0 0 0 0 0 0 0 0 0 0 0 -16 0 0 21 0 0 11 0 0 0 -8 0 0 0 0 0 0 0 0 0 0 0 0 0 0 0 0 0 0 0 0 8 0 0 0 0 0 0 0 0 0 0 0 0 0 0 0 0 0
11.1310 16.3463 -14.7917 0.5845 -5.1826 10.6915 0.0000 0.0000 0.0000 -10.1954 -16.5020 3.1840 0.0000 0.0000 0.0000 0.8814 7.9944 -22.3612 3.8212 11.9186 35.4446 0.0000 0.0000 0.0000 14.8089 50.7868 3.5309 -0.8932 -6.0239 16.8538 -5.8699 -26.4807 -58.4365 -6.1515 -14.5735 45.5866 0.0901 -0.3518 -4.2685 0.2248 -0.4744 -5.3643 0.1741 -0.2397 -3.1270 -5.3057 -2.4590 0.7725 8.0148 -3.5782 4.5044 3.5055 -1.7672 1.5749 -0.0000 -0.0000 0.0000 -87.6587 14.3089 19.0914 19.1856 -29.6486 -5.1223 -0.0000 -0.0000 24.3549 -1.9444 42.8923 -1.3237 -7.1250 0.0000 -0.0000 -51.3382 65.7657 -28.9598 -0.0000 -0.0000 0.0000 82.4766 -15.3841 28.1417 -16.8342 26.6387 -4.0127 0.0000 -0.0000 -4.3110 -20.0122 24.2786 -8.5170 7.1250 -0.0000 -0.0000 5.7349 -4.4462 5.3002
11.1324 16.3465 -14.7890 0.5608 -5.1984 10.7051 0.0000 0.0000 0.0000 -10.1763 -16.4809 3.1799 0.0000 0.0000 0.0000 0.9269 7.6588 -22.5051 4.1538 12.3623 37.0261 0.0000 0.0000 0.0000 14.7444 50.5966 3.3854 -0.8924 -6.0212 16.8461 -5.7136 -26.6629 -58.1158 -6.1273 -14.5506 45.4906 0.1487 -0.3597 -4.2289 0.2187 -0.4861 -5.3776 0.1353 -0.2478 -3.1636 -5.3558 -2.4634 0.6787 8.0599 -3.5871 4.5866 3.5302 -1.7693 1.6218 0.0000 -0.0000 0.0000 -87.6156 14.3279 19.0595 19.2174 -29.6879 -5.1381 -0.0000 -0.0000 24.3642 -2.1268 42.8571 -1.4469 -7.1250 0.0000 -0.0000 -51.4418 65.6893 -28.9466 0.0000 -0.0000 0.0000 82.4327 -15.4457 28.2274 -16.8340 26.6385 -4.0126 0.0000 -0.0000 -4.3163 -19.8114 24.1309 -8.3781 7.1250 -0.0000 -0.0000 5.8451 -4.6315 5.3827
11.1338 16.3490 -14.7842 0.5034 -5.2322 10.7591 0.0000 0.0000 0.0000 -10.1305 -16.4395 3.1474 0.0000 -0.0000 -0.0000 0.9024 7.8430 -22.4307 3.9639 12.1122 36.1299 0.0000 0.0000 0.0000 14.7158 50.5328 3.2827 -0.8878 -6.0062 16.8023 -5.3612 -27.4206 -57.6270 -5.9634 -14.3928 44.8346 0.2525 -0.3426 -4.3054 0.1960 -0.4661 -5.2126 0.0527 -0.2415 -2.9501 -5.3195 -2.5240 0.0427 8.1080 -3.6514 4.6509 3.5330 -1.7862 1.7630 -0.0000 0.0000 0.0000 -87.4991 13.9475 19.0729 19.1993 -29.6655 -5.1291 -0.0000 -0.0000 24.3628 -1.7020 42.3928 -1.1477 -7.1250 0.0000 -0.0000 -50.2771 65.5172 -27.9535 -0.0000 0.0000 0.0000 82.4080 -15.1144 28.3322 -16.7897 26.5797 -3.9928 0.0000 -0.0000 -4.5362 -19.1953 24.1308 -8.1005 7.1250 -0.0000 -0.0000 6.2248 -4.7307 5.7248
11.1347 16.3480 -14.7824 0.4866 -5.2051 10.7645 0.0000 0.0000 0.0000 -10.1275 -16.4638 3.1530 0.0000 0.0000 0.0000 0.8312 8.3595 -22.2029 3.4548 11.3972 33.6315 0.0000 0.0000 0.0000 14.8263 50.7242 3.4401 -0.8891 -6.0102 16.8141 -5.5524 -27.1510 -57.9826 -6.0551 -14.4815 45.2025 0.2930 -0.3487 -4.3187 0.1778 -0.4755 -5.1182 0.0107 -0.2477 -2.8450 -5.2658 -2.5561 -0.3125 8.1178 -3.6869 4.7186 3.5224 -1.7948 1.8511 -0.0000 -0.0000 0.0000 -87.3675 13.6874 19.1942 19.1445 -29.5979 -5.1020 -0.0000 -0.0000 24.3689 -1.4471 42.2794 -0.9737 -7.1250 0.0000 -0.0000 -49.8570 65.5183 -27.6686 -0.0000 -0.0000 0.0000 82.3713 -14.9451 28.3445 -16.7565 26.5357 -3.9779 0.0000 -0.0000 -4.6291 -18.4720 24.3020 -7.8279 7.1250 -0.0000 -0.0000 6.6848 -4.6689 6.1614
11.1347 16.3467 -14.7831 0.5794 -5.1999 10.7233 0.0000 0.0000 0.0000 -10.2328 -16.4807 3.1909 0.0000 0.0000 0.0000 0.7986 8.5532 -22.0671 3.2225 11.0469 32.4381 0.0000 0.0000 0.0000 14.8667 50.9659 3.6891 -0.8873 -6.0045 16.7974 -5.9017 -26.5704 -58.5814 -6.2080 -14.6269 45.8109 0.1698 -0.3811 -4.2543 0.1630 -0.5163 -5.0974 0.0641 -0.2644 -2.8586 -5.2317 -2.5588 -0.4716 8.0902 -3.6935 4.8776 3.5054 -1.7932 1.9311 -0.0000 -0.0000 0.0000 -87.2841 13.6298 19.3233 19.1161 -29.5627 -5.0880 -0.0000 -0.0000 24.3311 -1.2010 42.2803 -0.8080 -7.1250 0.0000 -0.0000 -49.6342 65.5913 -27.5968 -0.0000 -0.0000 0.0000 82.3633 -14.8801 28.2028 -16.6917 26.4495 -3.9490 0.0000 -0.0000 -4.3922 -18.1504 24.3365 -7.6938 7.1250 -0.0000 -0.0000 6.8855 -4.6835 6.3472
